<?xml version="1.0" encoding="UTF-8" standalone="no"?>
<svg width="852px" height="450px" viewBox="0 0 852 450" version="1.1" xmlns="http://www.w3.org/2000/svg" xmlns:xlink="http://www.w3.org/1999/xlink">
    <!-- Generator: Sketch 3.8.1 (29687) - http://www.bohemiancoding.com/sketch -->
    <title>Group</title>
    <desc>Created with Sketch.</desc>
    <defs></defs>
    <g id="Page-1" stroke="none" stroke-width="1" fill="none" fill-rule="evenodd">
        <g id="Desktop-HD-Copy" transform="translate(-451.000000, -62.000000)">
            <g id="Group" transform="translate(451.000000, 62.000000)">
                <path d="M595.5,166.5 L485.5,110.5" id="Line" stroke="#979797" stroke-linecap="square"></path>
                <path d="M598.5,170.5 L529.5,218.5" id="Line" stroke="#979797" stroke-linecap="square"></path>
                <path d="M205.14672,334.995003 C208.726377,335.291565 211.501894,335.51969 214.27551,335.751616 C233.099599,337.327578 251.921788,340.194345 270.74968,340.23997 C328.942389,340.376845 387.1389,339.327471 445.335411,338.947263 C513.651153,338.50242 581.966896,337.939712 650.278836,338.234373 C664.021448,338.293306 675.515131,334.206071 686.970792,327.78246 C691.837453,325.054469 697.175571,322.95192 702.5346,321.366453 C713.857189,318.018723 726.613162,317.132839 730.544511,302.760983 C742.32525,299.091978 748.387664,289.621001 754.138307,279.735597 C756.429059,275.800446 759.031582,272.017378 761.801396,268.401602 C765.033163,264.181295 767.825789,258.860286 772.162059,256.383232 C790.989951,245.634757 811.78922,238.072423 826.773211,221.333774 C829.4974,218.29021 832.22349,215.248547 833.921118,213.355112 C822.552904,205.015254 810.734143,199.104923 802.797305,189.86017 C791.560263,176.769614 783.385794,161.082239 773.511797,146.775019 C768.443627,139.431305 766.749801,132.271991 767.707925,123.034842 C768.884668,111.68944 768.981621,99.5056806 759.423196,90.2609273 C751.258233,82.3640107 743.317593,74.2370684 734.411224,65.3459083 C733.808595,66.0835115 731.745967,68.9008515 729.382976,71.4368377 C720.6458,80.8089607 710.534173,85.3771577 697.327654,81.7956 C685.474675,78.5809428 673.604586,76.0525608 660.877129,78.5258127 C656.187266,79.4364104 650.440424,75.5677958 645.332332,73.4937621 C638.444867,70.6954325 631.812142,65.2755699 624.884755,64.9523932 C606.935144,64.115936 596.601095,56.0973529 592.0367,38.8435217 C590.787717,34.1194395 587.04267,27.9182498 583.002962,26.5019756 C573.96162,23.3329434 564.038196,22.5744288 554.424641,21.1733629 C548.55043,20.3178953 545.774913,23.068699 545.754001,29.2603834 C545.725486,38.1078196 544.52593,46.9780682 544.900435,55.7912856 C545.191294,62.608412 542.206662,65.7337203 536.25641,67.0568436 C523.603093,69.8722825 511.035323,73.7142826 498.22232,74.9404529 C489.876758,75.7388893 487.835042,78.7577394 488.650588,85.9170528 C489.829232,96.2682109 486.819887,104.246872 477.25766,109.854938 C473.805373,111.877643 470.889179,116.272846 469.596472,120.198492 C467.404574,126.863535 462.864893,129.15999 456.872817,131.450742 C452.049881,133.29475 447.006424,136.802167 444.147261,140.993959 C440.322371,146.603925 438.925107,153.806963 435.695241,159.907397 C433.431104,164.182834 430.3134,170.488581 426.758456,171.096913 C418.445212,172.518891 408.953324,173.76217 403.282524,163.806428 C400.510809,158.94357 396.474903,154.803107 393.018814,150.347071 C385.595256,161.141172 379.770472,170.5228 373.029387,179.193439 C363.345494,191.647147 363.06414,191.420923 350.07434,182.875752 C348.488873,181.832081 346.907208,180.756093 345.219086,179.904428 C336.255686,175.381856 329.43856,177.963467 325.280987,187.039028 C324.157473,189.489467 322.457944,191.955115 320.395317,193.64704 C312.945144,199.753177 305.770623,200.209427 297.181728,194.320008 C284.534114,185.647467 271.040539,177.893128 255.683944,189.930508 C254.052853,191.208007 250.427571,191.411418 248.433381,190.525533 C231.631997,183.058252 223.630523,195.16597 214.655718,205.262389 C209.311897,211.275376 208.289138,217.826357 211.321295,225.400096 C213.258454,230.238241 214.218479,235.468 215.927513,241.646377 C208.498252,242.614006 202.473859,242.826922 196.746028,244.243196 C172.870877,250.147824 169.323538,253.282637 177.847798,273.908912 C180.364774,279.999842 178.84014,283.389394 174.019105,286.531812 C171.365254,288.261758 168.392029,289.676131 166.171616,291.854722 C161.903783,296.042711 158.40397,295.470498 153.782543,292.07144 C147.687812,287.592592 141.070295,283.72968 134.361528,280.201352 C121.527612,273.452663 113.453899,275.482973 107.148152,288.029831 C104.686307,292.925007 104.844093,299.236457 104.260474,304.949079 C103.602714,311.397404 104.173026,318.041536 102.912637,324.341579 C101.095244,333.430448 98.1125134,342.285488 95.2989754,352.421829 C132.93955,353.999691 168.812159,355.501512 205.14672,357.024244 L205.14672,334.995003 Z M69,360.094422 C72.7127294,356.645937 75.121346,354.332373 77.6117073,352.108157 C93.626061,337.80664 98.2988152,320.383616 94.2515029,299.348618 C93.1926241,293.847011 97.0517335,286.740926 100.159933,281.220309 C109.520649,264.59382 120.476338,261.61109 137.895559,270.462328 C144.351488,273.743522 150.237105,278.133021 156.645508,281.518772 C158.691027,282.600463 162.574849,283.174577 163.858051,282.022547 C165.724871,280.345831 166.886406,276.844117 166.734323,274.213078 C166.523308,270.526963 165.52146,266.510068 163.641332,263.363848 C157.999048,253.928991 161.432325,248.703034 170.502183,244.54166 C179.543525,240.393592 187.018411,232.675373 198.175609,233.369253 C199.397978,233.447195 202.470057,228.907514 201.962479,227.934182 C193.835537,212.393187 205.418569,203.365152 213.21473,193.247822 C215.878086,189.791732 219.811336,187.343194 222.794066,184.092417 C227.74057,178.704872 233.204157,177.387452 240.612506,178.433024 C246.285207,179.23146 252.63848,177.459691 258.297873,175.62709 C270.27442,171.74897 281.256723,174.879981 292.218114,179.111694 C293.919545,179.767553 295.242668,181.343514 296.843343,182.328253 C311.669547,191.443735 311.67525,191.432329 320.241332,176.189797 C324.208801,169.129338 340.607165,164.933745 347.287416,169.268114 C360.961591,178.145967 367.712181,176.326672 375.574879,161.447239 C377.93787,156.977896 379.648805,152.15496 382.14487,147.771163 C387.10278,139.072008 397.05472,138.524509 403.158956,146.476556 C406.044734,150.23491 408.517986,154.320243 411.50832,157.987348 C417.247558,165.028797 424.387861,163.97372 427.809731,155.744121 C430.108087,150.213999 432.642172,144.76562 434.604045,139.117633 C437.575369,130.562957 440.274845,122.015885 451.715298,122.023489 C452.30462,122.02539 452.943369,121.671797 453.473759,121.344818 C455.551595,120.061617 459.192085,118.938103 459.4031,117.371646 C461.330754,103.087238 484.270593,100.872528 479.075053,82.4115367 C477.685394,77.4650328 478.865939,71.7961341 478.865939,67.6499678 C495.439198,64.7090602 511.470661,61.7472412 527.54965,59.0781823 C532.7623,58.2132095 534.891464,56.1372747 534.958,50.4246521 C535.077765,40.0050566 536.36667,29.6025705 537.109976,19.186777 C537.5187,13.455144 540.322732,10.3716586 546.238766,11.1073607 C560.255128,12.8525146 574.284797,14.5539447 588.227018,16.7819625 C590.599514,17.1602693 592.852246,19.817922 594.633519,21.8767474 C596.026981,23.4869276 596.804506,25.7339558 597.513594,27.8136926 C603.353586,44.9591646 612.699094,57.0269611 633.30826,56.2418319 C637.895467,56.0669363 643.193663,60.230212 647.235272,63.532317 C652.849041,68.1195244 658.544554,68.5814769 665.515665,68.3590554 C674.450549,68.0738995 683.693401,69.2031167 692.388754,71.3798066 C710.634928,75.9461026 714.99401,74.9841768 726.673995,60.3956024 C728.057951,58.6675578 729.316439,56.831154 730.78214,55.179151 C736.70958,48.5046026 741.802464,48.6775972 744.861236,57.1410234 C749.383808,69.653663 757.265517,78.6569844 768.044409,85.87523 C770.401697,87.4530925 772.669637,90.6240257 773.101173,93.35772 C774.810207,104.199346 775.536404,115.191155 777.123771,126.055593 C777.872781,131.1903 778.650306,136.845891 781.304157,141.081407 C790.699092,156.074902 799.782257,171.526548 811.253127,184.852833 C817.602598,192.228865 828.358677,195.914979 837.342988,200.878593 C841.357983,203.099006 845.899565,204.370802 851.998099,206.785121 C847.642818,212.410296 844.431963,216.86253 840.880822,221.025805 C838.842908,223.41161 835.998954,225.107336 833.949633,227.487437 C821.271603,242.205282 805.084255,251.775113 787.583289,259.47052 C779.0058,263.242182 771.213441,267.614572 769.426464,278.180547 C769.050058,280.400961 767.169931,283.267728 765.217563,284.14981 C759.349056,286.809364 756.799762,290.774931 756.132497,297.219454 C755.868253,299.766846 752.001539,302.053797 749.583418,304.245695 C743.897409,309.399412 738.173381,314.520811 732.304873,319.465414 C729.287924,322.009004 726.229152,324.887178 722.670406,326.341473 C708.441128,332.156751 693.483753,336.43599 679.822885,343.323455 C669.834826,348.357407 659.846766,348.366912 649.611571,348.442954 C587.295508,348.914411 524.979445,349.218578 462.661481,349.421989 C400.746538,349.623499 338.831594,349.646311 276.91665,349.733759 C257.115427,349.760374 237.312302,349.737561 216.984491,349.737561 C217.073839,349.40678 216.630897,350.283159 216.628996,351.159539 C216.611887,367.620636 216.062487,367.960922 198.964541,367.173892 C161.354382,365.442046 123.730917,363.953532 86.1188574,362.227388 C80.9290206,361.989758 75.7734024,360.961296 69,360.094422 L69,360.094422 Z" id="Page-1" fill="#919191"></path>
                <g id="Page-1">
                    <polygon id="Fill-1" points="359.7 322.325 300.2 312.825 274.7 270.825 376.2 270.825"></polygon>
                    <polygon id="Fill-3" fill="#1F1C27" points="300.2 312.825 304.9 350.825 338.9 367.325"></polygon>
                    <polygon id="Fill-4" points="363 389.525 338.9 367.325 300.2 312.825 359.7 322.325"></polygon>
                    <polygon id="Fill-6" points="411.7 305.325 363 389.525 359.7 322.325"></polygon>
                    <polygon id="Fill-8" fill="#5E5D63" points="274.7 270.825 301.7 256.025 408 256.025 376.2 270.825"></polygon>
                    <polygon id="Fill-9" points="363 389.525 411.7 305.325 441.7 340.025"></polygon>
                    <polygon id="Fill-11" points="441.7 340.025 411.7 305.325 423.7 248.825 456.7 231.025"></polygon>
                    <polygon id="Fill-13" fill="#57565C" points="309.9 353.225 305 391.625 338.9 367.325"></polygon>
                    <polygon id="Fill-14" fill="#1E1B26" points="300.2 383.625 305 391.625 309.9 353.225"></polygon>
                    <polygon id="Fill-15" fill="#1E1B26" points="260.2 358.825 283.2 374.825 295.9 360.625"></polygon>
                    <polygon id="Fill-16" fill="#1E1B26" points="255.7 341.325 260.2 358.825 264.9 341.325"></polygon>
                    <polygon id="Fill-17" points="295.9 360.625 260.2 358.825 264.9 341.325 304.9 350.825"></polygon>
                    <polygon id="Fill-19" points="363 389.525 338.9 367.325 305 391.625"></polygon>
                    <polygon id="Fill-21" points="300.2 383.625 283.2 374.825 304.9 350.825 309.9 353.225"></polygon>
                    <polygon id="Fill-23" points="304.9 350.825 228.9 284.825 300.2 312.825"></polygon>
                    <polygon id="Fill-25" fill="#727177" points="474.7 304.025 441.7 340.025 432.9 363.125"></polygon>
                    <polyline id="Fill-26" points="474.7 304.025 441.7 340.025 456.7 231.025 467.5 222.625"></polyline>
                    <polygon id="Fill-28" points="304.9 350.825 264.9 341.325 228.9 284.825"></polygon>
                    <polygon id="Fill-30" points="300.2 312.825 228.9 284.825 223.7 263.425"></polygon>
                    <polygon id="Fill-32" points="300.2 312.825 223.7 263.425 274.7 270.825"></polygon>
                    <polygon id="Fill-34" points="264.9 341.325 172.7 283.325 228.9 284.825"></polygon>
                    <polygon id="Fill-36" points="301.7 256.025 367.7 233.525 408 256.025"></polygon>
                    <polygon id="Fill-38" points="274.7 270.825 243.7 241.125 223.7 263.425"></polygon>
                    <polygon id="Fill-40" fill="#F0F2EF" points="162.7 157.825 208.7 199.625 269.2 144.825"></polygon>
                    <polygon id="Fill-41" points="265.7 214.825 269.2 144.825 298.9 160.325"></polygon>
                    <polygon id="Fill-43" fill="#A6A7AB" points="274.7 270.825 243.7 241.125 249.2 236.025 301.7 256.025"></polygon>
                    <polygon id="Fill-44" points="367.7 233.525 411.7 187.625 434.2 220.825"></polygon>
                    <polygon id="Fill-46" fill="#F9FBF7" points="367.7 233.525 362.9 162.325 301.7 208.825"></polygon>
                    <polygon id="Fill-47" fill="#B8BCBD" points="411.7 187.625 367.7 233.525 362.9 162.325"></polygon>
                    <polygon id="Fill-48" points="434.2 220.825 411.7 187.625 456.7 170.125"></polygon>
                    <polygon id="Fill-50" points="493.5 202.025 456.7 231.025 434.2 220.825 456.7 170.125"></polygon>
                    <polygon id="Fill-52" points="172.7 283.325 144.5 334.325 86.7 256.025"></polygon>
                    <polygon id="Fill-54" points="144.5 334.325 172.7 283.325 264.9 341.325"></polygon>
                    <polygon id="Fill-56" points="144.5 334.325 47.4 292.525 86.7 256.025"></polygon>
                    <polygon id="Fill-58" fill="#8F9094" points="362.9 162.325 298.9 92.125 312 58.525 362.9 118.525"></polygon>
                    <polyline id="Fill-59" fill="#5C5B61" points="408 256.025 367.7 233.525 434.2 220.825 456.7 231.025 408 257.325"></polyline>
                    <polygon id="Fill-60" points="47.4 292.525 47.4 200.625 86.7 256.025"></polygon>
                    <polygon id="Fill-62" fill="#44434B" points="47.4 200.625 36.7 222.525 47.4 292.525"></polygon>
                    <polygon id="Fill-63" fill="#CED0CF" points="172.7 283.325 86.7 256.025 208.7 199.625"></polygon>
                    <polygon id="Fill-64" points="86.7 256.025 47.4 200.625 162.7 157.825"></polygon>
                    <polygon id="Fill-66" points="265.7 214.825 208.7 199.625 217.5 241.125"></polygon>
                    <polygon id="Fill-68" fill="#414048" points="243.7 241.125 217.5 241.125 265.7 214.825"></polygon>
                    <polygon id="Fill-69" fill="#2A2730" points="223.7 263.425 217.5 241.125 243.7 241.125"></polygon>
                    <polygon id="Fill-70" points="265.7 214.825 208.7 199.625 269.2 144.825"></polygon>
                    <polygon id="Fill-72" points="86.7 256.025 162.7 157.825 208.7 199.625"></polygon>
                    <polygon id="Fill-74" fill="#1F1C27" points="305 391.625 361.4 405.125 363 389.525"></polygon>
                    <polygon id="Fill-75" fill="#1E1B24" points="441.7 340.025 432.9 363.125 361.4 405.125"></polygon>
                    <polygon id="Fill-76" points="361.4 405.125 363 389.525 441.7 340.025"></polygon>
                    <polygon id="Fill-78" fill="#A3A4A8" points="362.9 162.325 327.9 154.125 301.7 208.825"></polygon>
                    <polygon id="Fill-79" points="162.7 157.825 147.7 143.825 47.4 200.625"></polygon>
                    <polygon id="Fill-81" points="162.7 157.825 147.7 143.825 261.9 122.625"></polygon>
                    <polygon id="Fill-83" fill="#807F84" points="327.9 154.125 289.2 203.825 301.7 208.825"></polygon>
                    <polygon id="Fill-84" fill="#EFF1EE" points="457 170.325 363.2 118.725 411.8 187.625"></polygon>
                    <polygon id="Fill-85" fill="#8B8A8F" points="172.7 283.325 217.5 241.125 208.7 199.625"></polygon>
                    <polygon id="Fill-86" points="228.9 284.825 172.7 283.325 217.5 241.125"></polygon>
                    <polygon id="Fill-88" points="367.7 233.525 301.7 256.025 249.2 236.025 301.7 208.825"></polygon>
                    <polygon id="Fill-90" points="456.7 170.125 362.9 118.525 358.5 68.525"></polygon>
                    <polygon id="Fill-92" points="422.8 135.025 411.7 82.025 445.9 136.325 456.7 170.125"></polygon>
                    <polygon id="Fill-94" fill="#BBBFC0" points="411.7 82.025 358.5 68.525 328.5 34.825"></polygon>
                    <polygon id="Fill-95" fill="#D2D4D3" points="431.1 112.725 440.9 85.825 395.6 72.925 411.7 82.025"></polygon>
                    <polygon id="Fill-96" points="422.8 135.025 358.5 68.525 411.7 82.025"></polygon>
                    <polygon id="Fill-98" fill="#898A8E" points="254.5 56.625 290.7 86.025 272.6 39.325"></polygon>
                    <polygon id="Fill-99" points="298.9 92.125 290.7 86.025 272.6 39.325"></polygon>
                    <polygon id="Fill-101" fill="#F0F2EF" points="362.9 118.525 312 58.525 328.5 34.825 358.5 68.525"></polygon>
                    <polygon id="Fill-102" fill="#66656B" points="289.2 203.825 298.9 160.325 327.9 154.125"></polygon>
                    <polygon id="Fill-103" points="298.9 160.325 289.2 203.825 243.7 241.125 266.9 212.825"></polygon>
                    <polygon id="Fill-105" fill="#626167" points="289.2 203.825 301.7 208.825 251.1 235.125"></polygon>
                    <polygon id="Fill-106" fill="#AEAFB1" points="440.9 85.825 438.9 125.125 431.1 112.725"></polygon>
                    <polygon id="Fill-107" points="298.9 160.325 314.9 126.125 298.9 92.125"></polygon>
                    <polygon id="Fill-109" points="298.9 160.325 314.9 126.125 327.9 154.125"></polygon>
                    <polygon id="Fill-111" points="362.9 118.525 362.9 162.325 411.8 187.625"></polygon>
                    <polygon id="Fill-113" points="327.9 154.125 298.9 92.125 362.9 162.325"></polygon>
                    <polygon id="Fill-115" fill="#B1B2B4" points="272.6 39.325 303.6 46.425 281.3 56.925"></polygon>
                    <polyline id="Fill-116" points="298.9 92.125 281.3 56.925 328.5 34.825 312 58.525"></polyline>
                    <polygon id="Fill-118" points="261.9 122.625 269.2 144.825 162.7 157.825"></polygon>
                    <polygon id="Fill-120" points="147.7 143.825 241.9 114.325 261.9 122.625"></polygon>
                    <polygon id="Fill-122" fill="#616066" points="198.8 127.825 203.8 120.025 220.1 121.225"></polygon>
                    <polyline id="Fill-123" fill="#AAABAF" points="222.1 120.525 230.9 111.625 240.9 90.825 203.8 120.025 220.1 121.225"></polyline>
                    <polygon id="Fill-124" points="241.9 114.325 254.5 56.625 230.9 111.625"></polygon>
                    <polygon id="Fill-126" points="269.2 144.925 262 122.625 298.9 92.125"></polygon>
                    <polygon id="Fill-128" points="241.9 114.325 261.9 122.625 254.5 56.625"></polygon>
                    <polygon id="Fill-130" points="222.1 120.525 230.9 111.625 241.9 114.325"></polygon>
                    <polygon id="Fill-132" points="298.9 160.325 269.2 144.825 298.9 92.125"></polygon>
                    <polygon id="Fill-134" points="261.9 122.625 254.5 56.625 298.9 92.125 263.8 121.125"></polygon>
                    <polygon id="Fill-136" fill="#AAABAF" points="411.7 305.325 376.2 270.825 423.7 248.825"></polygon>
                    <polygon id="Fill-137" fill="#8A898E" points="359.7 322.325 376.2 270.825 411.7 305.325"></polygon>
                    <g id="Group-348" transform="translate(0.000000, 0.325000)">
                        <path d="M28.7,149.1 C30.909,149.1 32.7,150.891 32.7,153.1 C32.7,155.309 30.909,157.1 28.7,157.1 C26.491,157.1 24.7,155.309 24.7,153.1 C24.7,150.891 26.491,149.1 28.7,149.1" id="Fill-138" fill="#34313A"></path>
                        <path d="M11.4,172 C12.891,172 14.1,173.209 14.1,174.7 C14.1,176.191 12.891,177.4 11.4,177.4 C9.909,177.4 8.7,176.191 8.7,174.7 C8.7,173.209 9.909,172 11.4,172" id="Fill-140" fill="#1E1C27"></path>
                        <path d="M8.7,244 C13.505,244 17.4,247.895 17.4,252.7 C17.4,257.505 13.505,261.4 8.7,261.4 C3.895,261.4 0,257.505 0,252.7 C0,247.895 3.895,244 8.7,244" id="Fill-142" fill="#57565E"></path>
                        <path d="M206.7,230.4 C208.191,230.4 209.4,231.609 209.4,233.1 C209.4,234.591 208.191,235.8 206.7,235.8 C205.209,235.8 204,234.591 204,233.1 C204,231.609 205.209,230.4 206.7,230.4" id="Fill-144" fill="#CCCDCF"></path>
                        <polyline id="Stroke-146" stroke="#535258" points="431.8 285.6 408 346.1 375 299.1"></polyline>
                        <polyline id="Stroke-148" stroke="#535258" points="414.2 290.7 373.5 256.7 264.2 274.9 209.4 258.9"></polyline>
                        <polyline id="Stroke-150" stroke="#535258" points="204 233.1 236.9 237.6 264.2 277.4"></polyline>
                        <polyline id="Stroke-152" stroke="#535258" points="242.7 233.1 301.9 268.6 411.5 290.7"></polyline>
                        <path d="M152.5,111.1 L281.7,112.1" id="Stroke-154" stroke="#535258"></path>
                        <path d="M152.5,111.1 L260,98.1" id="Stroke-156" stroke="#535258"></path>
                        <polyline id="Stroke-158" stroke="#535258" points="211.5 103.2 217.4 96.3 234 101.2"></polyline>
                        <path d="M217.4,96.3 L263.5,72.6" id="Stroke-160" stroke="#535258"></path>
                        <path d="M250.8,91.1 L242.1,100.3" id="Stroke-162" stroke="#535258"></path>
                        <polyline id="Stroke-164" stroke="#535258" points="280.4 373.4 314.2 397.4 272.4 417.7 330.4 444.7 418 414.7 477 357.1"></polyline>
                        <polyline id="Stroke-166" stroke="#E2E4E1" points="276.5 371.1 262.7 397.2 308.9 423.3 328.2 397.2 341.1 400.9"></polyline>
                        <polyline id="Stroke-168" stroke="#E2E4E1" points="222.4 408.1 272.4 417.7 333.7 426.4"></polyline>
                        <path d="M222.4,408.1 L217.8,350.1" id="Stroke-170" stroke="#E2E4E1"></path>
                        <polyline id="Stroke-172" stroke="#FFFFFF" points="189.8 130.3 149.9 58.4 240.4 87.1 249.7 19.4 147.3 58.4 147.3 0.7 73.4 58.4 63.7 83.1 148.7 0.7 249.7 17.7 274 39.4"></polyline>
                        <polyline id="Stroke-174" stroke="#FFFFFF" points="147.3 58.4 63.7 83.1 125 157.1"></polyline>
                        <path d="M63.7,83.1 L111.4,164.1" id="Stroke-176" stroke="#FFFFFF"></path>
                        <path d="M149.9,58.4 L142,148.1" id="Stroke-178" stroke="#FFFFFF"></path>
                        <polyline id="Stroke-180" stroke="#FFFFFF" points="471.4 296.3 531.4 259.6 528.4 217.5"></polyline>
                        <polyline id="Stroke-182" stroke="#FFFFFF" points="528.7 215.7 485.1 119.3 538.4 197.1"></polyline>
                        <polyline id="Stroke-184" stroke="#FFFFFF" points="438.2 96.3 485.1 119.3 477 132.7 434.6 102.6 435.4 124.3 477 132.7 471.5 183.7 452.7 153.1 477 132.7 528.7 215.7"></polyline>
                        <path d="M528.7,218.4 L471.4,272.1" id="Stroke-186" stroke="#FFFFFF"></path>
                        <path d="M528.7,218.4 L465.7,218.4" id="Stroke-188" stroke="#FFFFFF"></path>
                        <path d="M477,132.7 L436,129.7" id="Stroke-190" stroke="#FFFFFF"></path>
                        <polyline id="Stroke-192" stroke="#535258" points="375 299.1 369 299.1 264.2 277.4 282.5 327.9 347.7 353.1 375 299.1 414.2 290.7 409.7 343.7 338.5 424.7 342.1 424.7 435.4 389.4 408 346.1 347.7 353.1 338.3 420.7 334.7 424.7 314.2 397.4 282.5 327.9 280.4 373.4"></polyline>
                        <polyline id="Stroke-194" stroke="#535258" points="282.5 327.9 209.4 258.9 211.5 284.6 148.4 269.4 206.7 233.1 265 213.4 206.7 186.3 60 222.7 146 269.4 107 320.4 58.4 222.7 12 252.7 107 320.4"></polyline>
                        <path d="M519.5,248.1 L471.4,273.9" id="Stroke-196" stroke="#535258"></path>
                        <polyline id="Stroke-198" stroke="#535258" points="414.2 290.7 471.4 273.9 435.4 389.4 477 356.1 485.4 266.4 471.4 273.9 450.5 256.7 373.5 256.7 382.9 175.3 433.2 214.5 393.4 129.7 485.1 203.6 450.5 256.7 433.2 214.5 485.1 203.6 519.5 248.1"></polyline>
                        <polyline id="Stroke-200" stroke="#535258" points="238.7 354.1 148.4 269.4 211.5 284.6 236.2 346.8 280.4 373.4 251.4 395.1"></polyline>
                        <polyline id="Stroke-202" stroke="#535258" points="485.1 203.6 481.1 164.5 455.6 100.3 456.2 158.7 485.1 206"></polyline>
                        <path d="M372,256.6 L433.2,214.5" id="Stroke-204" stroke="#535258"></path>
                        <polyline id="Stroke-206" stroke="#535258" points="375 258.9 307.4 215.9 382.9 177.1 393.4 129.7 400 74.1 456.2 161"></polyline>
                        <polyline id="Stroke-208" stroke="#535258" points="382.9 177.1 329.7 85.4 346.5 161.4 310.4 211.1 242.7 233.1 209.4 258.9"></polyline>
                        <polyline id="Stroke-210" stroke="#535258" points="8.7 247.7 11.4 172.1 28.7 153.1 8.7 252.7"></polyline>
                        <polygon id="Stroke-212" stroke="#535258" points="31 153.1 152.5 111.1 163.9 128.5"></polygon>
                        <polyline id="Stroke-214" stroke="#535258" points="31 156.3 58.4 222.7 163.9 128.5 206.7 184.7 285.4 137.1 265 213.4"></polyline>
                        <polyline id="Stroke-216" stroke="#535258" points="348.7 161.4 315.4 161.4 293.7 206 346.5 161.4"></polyline>
                        <polyline id="Stroke-218" stroke="#535258" points="307.4 214.7 293.7 206 245 233.1"></polyline>
                        <polyline id="Stroke-220" stroke="#535258" points="338.8 126.7 315.4 161.4 329.7 85.4 285.4 137.1 312.7 161.4 265 213.4"></polyline>
                        <polyline id="Stroke-222" stroke="#535258" points="393.4 129.7 350 51.4 329.7 87.1 283.4 112.1 285.4 137.1 163.9 128.5 280 112.1 260 98.1 249.7 92.7 287.4 37.7 260 98.1"></polyline>
                        <polyline id="Stroke-224" stroke="#535258" points="149.9 270.3 204.8 187.1 208.3 233.9 209.4 261.3"></polyline>
                        <polyline id="Stroke-226" stroke="#535258" points="272.4 417.7 284.9 376.6 267.2 408.9 272.4 417.7"></polyline>
                        <polyline id="Stroke-228" stroke="#535258" points="235.3 361 227 371.1 269.1 381.9"></polyline>
                        <polyline id="Stroke-230" stroke="#535258" points="227.7 371.1 251.4 395.1 267.2 408.9"></polyline>
                        <polyline id="Stroke-232" stroke="#535258" points="280.4 373.4 240 356.1 107.9 320.4 330.4 444.7 334.7 430.1"></polyline>
                        <polyline id="Stroke-234" stroke="#535258" points="333.7 443.4 435.4 389.4 418 414.7"></polyline>
                        <path d="M227.7,372.5 L227,352.5" id="Stroke-236" stroke="#535258"></path>
                        <polyline id="Stroke-238" stroke="#535258" points="281.7 112.1 287.4 39.4 328.4 86.3 312.4 21.7 342.2 36.1 371.7 30.9 350 51.4"></polyline>
                        <polygon id="Stroke-240" stroke="#535258" points="400 74.1 374.4 32.4 454.5 98.7"></polygon>
                        <polyline id="Stroke-242" stroke="#535258" points="437.7 84.8 485.1 107.7 470.3 137.4"></polyline>
                        <path d="M486.5,110.3 L475.7,150.9" id="Stroke-244" stroke="#535258"></path>
                        <path d="M342.2,36.1 L317.5,42.3" id="Stroke-246" stroke="#535258"></path>
                        <polyline id="Stroke-248" stroke="#535258" points="319.8 76.5 312.4 21.7 287.4 37.7"></polyline>
                        <polyline id="Stroke-250" stroke="#E2E4E1" points="170.2 334.7 174.7 355.1 191.5 343 222.4 408.1 223.7 340"></polyline>
                        <path d="M222.4,408.1 L302.9,386.7" id="Stroke-252" stroke="#E2E4E1"></path>
                        <path d="M238.7,346.4 C242.953,346.4 246.4,349.847 246.4,354.1 C246.4,358.353 242.953,361.8 238.7,361.8 C234.447,361.8 231,358.353 231,354.1 C231,349.847 234.447,346.4 238.7,346.4" id="Fill-254" fill="#35343A"></path>
                        <path d="M227.7,368.8 C228.97,368.8 230,369.83 230,371.1 C230,372.37 228.97,373.4 227.7,373.4 C226.43,373.4 225.4,372.37 225.4,371.1 C225.4,369.83 226.43,368.8 227.7,368.8" id="Fill-256" fill="#5A5961"></path>
                        <path d="M251.4,392.8 C252.67,392.8 253.7,393.83 253.7,395.1 C253.7,396.37 252.67,397.4 251.4,397.4 C250.13,397.4 249.1,396.37 249.1,395.1 C249.1,393.83 250.13,392.8 251.4,392.8" id="Fill-258" fill="#5A5961"></path>
                        <path d="M222.4,404.8 C224.223,404.8 225.7,406.277 225.7,408.1 C225.7,409.923 224.223,411.4 222.4,411.4 C220.577,411.4 219.1,409.923 219.1,408.1 C219.1,406.277 220.577,404.8 222.4,404.8" id="Fill-260" fill="#B2B3B5"></path>
                        <path d="M176.4,353.4 C177.339,353.4 178.1,354.161 178.1,355.1 C178.1,356.039 177.339,356.8 176.4,356.8 C175.461,356.8 174.7,356.039 174.7,355.1 C174.7,354.161 175.461,353.4 176.4,353.4" id="Fill-262" fill="#B2B3B5"></path>
                        <path d="M375,293.1 C378.314,293.1 381,295.786 381,299.1 C381,302.414 378.314,305.1 375,305.1 C371.686,305.1 369,302.414 369,299.1 C369,295.786 371.686,293.1 375,293.1" id="Fill-264" fill="#3F3E46"></path>
                        <path d="M347.7,350.1 C349.357,350.1 350.7,351.443 350.7,353.1 C350.7,354.757 349.357,356.1 347.7,356.1 C346.043,356.1 344.7,354.757 344.7,353.1 C344.7,351.443 346.043,350.1 347.7,350.1" id="Fill-266" fill="#FAFCF8"></path>
                        <path d="M408,341.8 C410.375,341.8 412.3,343.725 412.3,346.1 C412.3,348.475 410.375,350.4 408,350.4 C405.625,350.4 403.7,348.475 403.7,346.1 C403.7,343.725 405.625,341.8 408,341.8" id="Fill-268" fill="#D6D8D5"></path>
                        <path d="M373.5,252.7 C375.709,252.7 377.5,254.491 377.5,256.7 C377.5,258.909 375.709,260.7 373.5,260.7 C371.291,260.7 369.5,258.909 369.5,256.7 C369.5,254.491 371.291,252.7 373.5,252.7" id="Fill-270" fill="#1F1D28"></path>
                        <path d="M414.2,288 C415.691,288 416.9,289.209 416.9,290.7 C416.9,292.191 415.691,293.4 414.2,293.4 C412.709,293.4 411.5,292.191 411.5,290.7 C411.5,289.209 412.709,288 414.2,288" id="Fill-272" fill="#1F1D28"></path>
                        <path d="M471.4,272.1 C472.394,272.1 473.2,272.906 473.2,273.9 C473.2,274.894 472.394,275.7 471.4,275.7 C470.406,275.7 469.6,274.894 469.6,273.9 C469.6,272.906 470.406,272.1 471.4,272.1" id="Fill-274" fill="#1F1D28"></path>
                        <path d="M450.5,254.5 C451.715,254.5 452.7,255.485 452.7,256.7 C452.7,257.915 451.715,258.9 450.5,258.9 C449.285,258.9 448.3,257.915 448.3,256.7 C448.3,255.485 449.285,254.5 450.5,254.5" id="Fill-276" fill="#FBFBF9"></path>
                        <path d="M382.9,173.4 C384.943,173.4 386.6,175.057 386.6,177.1 C386.6,179.143 384.943,180.8 382.9,180.8 C380.857,180.8 379.2,179.143 379.2,177.1 C379.2,175.057 380.857,173.4 382.9,173.4" id="Fill-278" fill="#1D1A25"></path>
                        <path d="M307.4,206.7 C311.818,206.7 315.4,210.282 315.4,214.7 C315.4,219.118 311.818,222.7 307.4,222.7 C302.982,222.7 299.4,219.118 299.4,214.7 C299.4,210.282 302.982,206.7 307.4,206.7" id="Fill-280" fill="#36333C"></path>
                        <path d="M315.4,158.7 C316.891,158.7 318.1,159.909 318.1,161.4 C318.1,162.891 316.891,164.1 315.4,164.1 C313.909,164.1 312.7,162.891 312.7,161.4 C312.7,159.909 313.909,158.7 315.4,158.7" id="Fill-282" fill="#F2F4F3"></path>
                        <path d="M282.5,325.7 C283.715,325.7 284.7,326.685 284.7,327.9 C284.7,329.115 283.715,330.1 282.5,330.1 C281.285,330.1 280.3,329.115 280.3,327.9 C280.3,326.685 281.285,325.7 282.5,325.7" id="Fill-284" fill="#211E29"></path>
                        <path d="M211.5,282.4 C212.715,282.4 213.7,283.385 213.7,284.6 C213.7,285.815 212.715,286.8 211.5,286.8 C210.285,286.8 209.3,285.815 209.3,284.6 C209.3,283.385 210.285,282.4 211.5,282.4" id="Fill-286" fill="#FBFBF9"></path>
                        <path d="M264.2,274.9 C265.581,274.9 266.7,276.019 266.7,277.4 C266.7,278.781 265.581,279.9 264.2,279.9 C262.819,279.9 261.7,278.781 261.7,277.4 C261.7,276.019 262.819,274.9 264.2,274.9" id="Fill-288" fill="#FBFBF9"></path>
                        <path d="M265,211.1 C266.27,211.1 267.3,212.13 267.3,213.4 C267.3,214.67 266.27,215.7 265,215.7 C263.73,215.7 262.7,214.67 262.7,213.4 C262.7,212.13 263.73,211.1 265,211.1" id="Fill-290" fill="#1F1D28"></path>
                        <path d="M485.1,203.6 C486.426,203.6 487.5,204.675 487.5,206 C487.5,207.325 486.426,208.4 485.1,208.4 C483.774,208.4 482.7,207.325 482.7,206 C482.7,204.675 483.774,203.6 485.1,203.6" id="Fill-292" fill="#1F1C27"></path>
                        <path d="M433.2,213.1 C433.973,213.1 434.6,213.727 434.6,214.5 C434.6,215.273 433.973,215.9 433.2,215.9 C432.427,215.9 431.8,215.273 431.8,214.5 C431.8,213.727 432.427,213.1 433.2,213.1" id="Fill-294" fill="#1F1C27"></path>
                        <path d="M346.5,159.2 C347.715,159.2 348.7,160.185 348.7,161.4 C348.7,162.615 347.715,163.6 346.5,163.6 C345.285,163.6 344.3,162.615 344.3,161.4 C344.3,160.185 345.285,159.2 346.5,159.2" id="Fill-296" fill="#1F1C27"></path>
                        <path d="M456.2,158.8 C457.415,158.8 458.4,159.785 458.4,161 C458.4,162.215 457.415,163.2 456.2,163.2 C454.985,163.2 454,162.215 454,161 C454,159.785 454.985,158.8 456.2,158.8" id="Fill-298" fill="#1F1C27"></path>
                        <path d="M481.1,162.9 C481.984,162.9 482.7,163.616 482.7,164.5 C482.7,165.384 481.984,166.1 481.1,166.1 C480.216,166.1 479.5,165.384 479.5,164.5 C479.5,163.616 480.216,162.9 481.1,162.9" id="Fill-300" fill="#3A3941"></path>
                        <path d="M455.6,96.3 C457.809,96.3 459.6,98.091 459.6,100.3 C459.6,102.509 457.809,104.3 455.6,104.3 C453.391,104.3 451.6,102.509 451.6,100.3 C451.6,98.091 453.391,96.3 455.6,96.3" id="Fill-302" fill="#403E49"></path>
                        <path d="M487.1,102.7 C490.524,102.7 493.3,105.476 493.3,108.9 C493.3,112.324 490.524,115.1 487.1,115.1 C483.676,115.1 480.9,112.324 480.9,108.9 C480.9,105.476 483.676,102.7 487.1,102.7" id="Fill-304" fill="#403E49"></path>
                        <path d="M148.4,265.4 C150.609,265.4 152.4,267.191 152.4,269.4 C152.4,271.609 150.609,273.4 148.4,273.4 C146.191,273.4 144.4,271.609 144.4,269.4 C144.4,267.191 146.191,265.4 148.4,265.4" id="Fill-306" fill="#1D1A25"></path>
                        <path d="M107,318.1 C108.27,318.1 109.3,319.13 109.3,320.4 C109.3,321.67 108.27,322.7 107,322.7 C105.73,322.7 104.7,321.67 104.7,320.4 C104.7,319.13 105.73,318.1 107,318.1" id="Fill-308" fill="#1D1A25"></path>
                        <path d="M329.7,83.1 C331.909,83.1 333.7,84.891 333.7,87.1 C333.7,89.309 331.909,91.1 329.7,91.1 C327.491,91.1 325.7,89.309 325.7,87.1 C325.7,84.891 327.491,83.1 329.7,83.1" id="Fill-310" fill="#1D1A25"></path>
                        <path d="M285.4,135.1 C286.505,135.1 287.4,135.995 287.4,137.1 C287.4,138.205 286.505,139.1 285.4,139.1 C284.295,139.1 283.4,138.205 283.4,137.1 C283.4,135.995 284.295,135.1 285.4,135.1" id="Fill-312" fill="#1D1A25"></path>
                        <path d="M281.7,110.4 C282.639,110.4 283.4,111.161 283.4,112.1 C283.4,113.039 282.639,113.8 281.7,113.8 C280.761,113.8 280,113.039 280,112.1 C280,111.161 280.761,110.4 281.7,110.4" id="Fill-314" fill="#221F2A"></path>
                        <path d="M249.7,90 C251.191,90 252.4,91.209 252.4,92.7 C252.4,94.191 251.191,95.4 249.7,95.4 C248.209,95.4 247,94.191 247,92.7 C247,91.209 248.209,90 249.7,90" id="Fill-316" fill="#221F2A"></path>
                        <path d="M217.4,94.5 C218.394,94.5 219.2,95.306 219.2,96.3 C219.2,97.294 218.394,98.1 217.4,98.1 C216.406,98.1 215.6,97.294 215.6,96.3 C215.6,95.306 216.406,94.5 217.4,94.5" id="Fill-318" fill="#221F2A"></path>
                        <path d="M336.4,420.4 C339.714,420.4 342.4,423.086 342.4,426.4 C342.4,429.714 339.714,432.4 336.4,432.4 C333.086,432.4 330.4,429.714 330.4,426.4 C330.4,423.086 333.086,420.4 336.4,420.4" id="Fill-320" fill="#231F2B"></path>
                        <path d="M330.4,440.4 C332.775,440.4 334.7,442.325 334.7,444.7 C334.7,447.075 332.775,449 330.4,449 C328.025,449 326.1,447.075 326.1,444.7 C326.1,442.325 328.025,440.4 330.4,440.4" id="Fill-322" fill="#231F2B"></path>
                        <path d="M477,353.1 C479.209,353.1 481,354.891 481,357.1 C481,359.309 479.209,361.1 477,361.1 C474.791,361.1 473,359.309 473,357.1 C473,354.891 474.791,353.1 477,353.1" id="Fill-324" fill="#333039"></path>
                        <path d="M435.4,386.7 C436.891,386.7 438.1,387.909 438.1,389.4 C438.1,390.891 436.891,392.1 435.4,392.1 C433.909,392.1 432.7,390.891 432.7,389.4 C432.7,387.909 433.909,386.7 435.4,386.7" id="Fill-326" fill="#1E1B26"></path>
                        <path d="M420,414.7 C420,415.8 419.1,416.7 418,416.7 C416.9,416.7 416,415.8 416,414.7 C416,413.6 416.9,414.7 418,414.7 C419.1,414.7 420,413.6 420,414.7" id="Fill-328" fill="#1E1B26"></path>
                        <path d="M272.4,415.4 C273.67,415.4 274.7,416.43 274.7,417.7 C274.7,418.97 273.67,420 272.4,420 C271.13,420 270.1,418.97 270.1,417.7 C270.1,416.43 271.13,415.4 272.4,415.4" id="Fill-330" fill="#1E1B26"></path>
                        <path d="M206.7,182.8 C208.633,182.8 210.2,184.367 210.2,186.3 C210.2,188.233 208.633,189.8 206.7,189.8 C204.767,189.8 203.2,188.233 203.2,186.3 C203.2,184.367 204.767,182.8 206.7,182.8" id="Fill-332" fill="#6D6C74"></path>
                        <path d="M163.9,122.5 C167.214,122.5 169.9,125.186 169.9,128.5 C169.9,131.814 167.214,134.5 163.9,134.5 C160.586,134.5 157.9,131.814 157.9,128.5 C157.9,125.186 160.586,122.5 163.9,122.5" id="Fill-334" fill="#4B4A50"></path>
                        <path d="M152.5,108.6 C153.881,108.6 155,109.719 155,111.1 C155,112.481 153.881,113.6 152.5,113.6 C151.119,113.6 150,112.481 150,111.1 C150,109.719 151.119,108.6 152.5,108.6" id="Fill-336" fill="#4B4A50"></path>
                        <path d="M242.7,230.8 C243.97,230.8 245,231.83 245,233.1 C245,234.37 243.97,235.4 242.7,235.4 C241.43,235.4 240.4,234.37 240.4,233.1 C240.4,231.83 241.43,230.8 242.7,230.8" id="Fill-338" fill="#1F1D28"></path>
                        <path d="M209.4,256.6 C210.67,256.6 211.7,257.63 211.7,258.9 C211.7,260.17 210.67,261.2 209.4,261.2 C208.13,261.2 207.1,260.17 207.1,258.9 C207.1,257.63 208.13,256.6 209.4,256.6" id="Fill-340" fill="#1F1D28"></path>
                        <path d="M287.4,36 C288.339,36 289.1,36.761 289.1,37.7 C289.1,38.639 288.339,39.4 287.4,39.4 C286.461,39.4 285.7,38.639 285.7,37.7 C285.7,36.761 286.461,36 287.4,36" id="Fill-342" fill="#525157"></path>
                        <path d="M260,95.9 C261.215,95.9 262.2,96.885 262.2,98.1 C262.2,99.315 261.215,100.3 260,100.3 C258.785,100.3 257.8,99.315 257.8,98.1 C257.8,96.885 258.785,95.9 260,95.9" id="Fill-344" fill="#FFFFFF"></path>
                        <path d="M393.4,126.7 C395.057,126.7 396.4,128.043 396.4,129.7 C396.4,131.357 395.057,132.7 393.4,132.7 C391.743,132.7 390.4,131.357 390.4,129.7 C390.4,128.043 391.743,126.7 393.4,126.7" id="Fill-346" fill="#FBFBF9"></path>
                    </g>
                </g>
                <circle id="Oval-1" fill="#5872DD" cx="599.5" cy="169.5" r="10.5"></circle>
            </g>
        </g>
    </g>
</svg>