<?xml version="1.0" encoding="utf-8"?>
<!-- Generator: Adobe Illustrator 18.1.1, SVG Export Plug-In . SVG Version: 6.00 Build 0)  -->
<svg version="1.1" xmlns="http://www.w3.org/2000/svg" xmlns:xlink="http://www.w3.org/1999/xlink" x="0px" y="0px"
	 viewBox="0 0 668 419" enable-background="new 0 0 668 419" xml:space="preserve">
<g id="Layer_2">
</g>
<g id="Layer_1">
	<polygon fill="#333333" points="180.7,401.5 77.2,301.9 32.6,228.7 22.5,209.7 11.8,120.9 77.2,65.9 152.7,45.4 168.9,23.9 
		173.9,13.9 215.9,23.9 223,15.8 241.8,12.8 270.5,16.6 300.5,47.1 324.6,61.8 412.2,95 422,99.3 422,135.3 507.5,192 467.9,253.6 
		451,280.8 444.9,253.6 389,242.3 378.1,248.6 390.1,266.1 402.8,301.5 416.6,311.8 422,283 426.4,314.4 418.6,337.6 394.3,375.4 
		345,400.7 288.5,327.5 287.4,320 229.4,351.8 207.6,373.2 	"/>
	<g opacity="0.43">
		<g>
			<linearGradient id="SVGID_1_" gradientUnits="userSpaceOnUse" x1="401.3437" y1="313.2819" x2="395.5927" y2="68.1469">
				<stop  offset="0" style="stop-color:#A7A9AC"/>
				<stop  offset="1" style="stop-color:#6D6E71"/>
			</linearGradient>
			<polygon fill="url(#SVGID_1_)" points="299.9,303.1 291.6,298.2 338.7,218.1 389.6,186.8 422.1,195 507.1,187.2 508,196.8 
				421.4,204.7 391.2,197.1 345.8,225.1 			"/>
		</g>
		<g>
			<linearGradient id="SVGID_2_" gradientUnits="userSpaceOnUse" x1="247.4497" y1="316.8923" x2="241.6987" y2="71.7574">
				<stop  offset="0" style="stop-color:#A7A9AC"/>
				<stop  offset="1" style="stop-color:#6D6E71"/>
			</linearGradient>
			<polygon fill="url(#SVGID_2_)" points="190.1,320 180.7,317.7 212,187.3 232.1,220.4 311.6,204.6 281.7,277.8 272.8,274.1 
				295.9,217.6 227.5,231.2 215.9,212.3 			"/>
		</g>
		<g>
			<linearGradient id="SVGID_3_" gradientUnits="userSpaceOnUse" x1="68.2212" y1="225.3961" x2="68.2212" y2="225.3961">
				<stop  offset="0" style="stop-color:#A7A9AC"/>
				<stop  offset="1" style="stop-color:#6D6E71"/>
			</linearGradient>
			<path fill="url(#SVGID_3_)" d="M68.2,225.4"/>
		</g>
		<g>
			<linearGradient id="SVGID_4_" gradientUnits="userSpaceOnUse" x1="90.8942" y1="320.5652" x2="85.1432" y2="75.4302">
				<stop  offset="0" style="stop-color:#A7A9AC"/>
				<stop  offset="1" style="stop-color:#6D6E71"/>
			</linearGradient>
			<polygon fill="url(#SVGID_4_)" points="88.3,308.5 79.1,305.6 103.2,231.7 62.1,145.8 70.7,141.4 104.3,202.9 101,204.7 
				113.5,230.9 			"/>
		</g>
		<g>
			<linearGradient id="SVGID_5_" gradientUnits="userSpaceOnUse" x1="230.7641" y1="317.2838" x2="225.0132" y2="72.1488">
				<stop  offset="0" style="stop-color:#A7A9AC"/>
				<stop  offset="1" style="stop-color:#6D6E71"/>
			</linearGradient>
			<polygon fill="url(#SVGID_5_)" points="252.6,130.2 257.5,87.9 243,59.2 190,38.5 180.7,43.7 180.7,101 148.8,45.6 157.1,40.8 
				171.1,64.9 171.1,38 189.2,27.9 249.9,51.6 267.4,86.1 265,106.6 291,83.9 291,74.4 263.5,46.6 270.4,39.8 300.6,70.6 
				300.6,88.3 			"/>
		</g>
		<g>
			<linearGradient id="SVGID_6_" gradientUnits="userSpaceOnUse" x1="233.3777" y1="317.2225" x2="227.6267" y2="72.0875">
				<stop  offset="0" style="stop-color:#A7A9AC"/>
				<stop  offset="1" style="stop-color:#6D6E71"/>
			</linearGradient>
			<polygon fill="url(#SVGID_6_)" points="213,375.7 204.3,371.7 256.7,253.9 182.8,329.6 225.2,224.3 253.8,118.2 242.3,59 
				198.7,43.9 218.8,199.2 209.4,201.3 171.3,84.5 180.5,81.4 202.6,149.4 187.2,29.7 250.7,51.8 263.7,118.5 234.3,227.7 
				210,287.9 287.4,208.7 			"/>
		</g>
		<g>
			<linearGradient id="SVGID_7_" gradientUnits="userSpaceOnUse" x1="395.595" y1="111.6348" x2="395.595" y2="111.6348">
				<stop  offset="0" style="stop-color:#A7A9AC"/>
				<stop  offset="1" style="stop-color:#6D6E71"/>
			</linearGradient>
			<path fill="url(#SVGID_7_)" d="M395.6,111.6"/>
		</g>
		<g>
			<linearGradient id="SVGID_8_" gradientUnits="userSpaceOnUse" x1="262.1949" y1="316.5464" x2="256.444" y2="71.4114">
				<stop  offset="0" style="stop-color:#A7A9AC"/>
				<stop  offset="1" style="stop-color:#6D6E71"/>
			</linearGradient>
			<path fill="url(#SVGID_8_)" d="M181.6,407.6L60.5,291.5l-43-82.4L4.9,118.8l66.7-55.4l84.6-26.2l11.5-24.4L224,23.2l96.8,30.3
				l104.5,39.8v40.5L510,188l-0.2,0.3l2,0.9L497,222.5l-28.5,41.4l-75.7-20.4L368,259l-9.1,30.7l77.4,22.3l-32.6,57l-57.9,38.2
				l-58.2-78.8L229.2,360L181.6,407.6z M290.4,316.2l57.7,78.2l48.3-31.8l25.3-44.3l-74.9-21.6l12.8-43.7l31.5-19.6l73.2,19.6
				l24.4-35.5l11-24.6l-84-53.7v-39.1l-98.1-37.4l-96.1-30.2l-48-8.9L160.2,46L76.4,72l-61.1,50.8l11.5,83.5l41.5,79.5l113.1,108.5
				l41.8-41.8L290.4,316.2z"/>
		</g>
		<g>
			<linearGradient id="SVGID_9_" gradientUnits="userSpaceOnUse" x1="383.995" y1="313.6889" x2="378.244" y2="68.5539">
				<stop  offset="0" style="stop-color:#A7A9AC"/>
				<stop  offset="1" style="stop-color:#6D6E71"/>
			</linearGradient>
			<polygon fill="url(#SVGID_9_)" points="412.2,314.7 386.3,306.1 381.5,293.2 367.6,285.5 364.3,293.9 355.3,290.4 362.5,271.7 
				389.2,286.4 393.8,298.3 397.3,299.5 389.7,275.2 371.5,253 379.1,247 398.3,270.6 			"/>
		</g>
		<g>
			<linearGradient id="SVGID_10_" gradientUnits="userSpaceOnUse" x1="264.0844" y1="316.5021" x2="258.3335" y2="71.3671">
				<stop  offset="0" style="stop-color:#A7A9AC"/>
				<stop  offset="1" style="stop-color:#6D6E71"/>
			</linearGradient>
			<polygon fill="url(#SVGID_10_)" points="204.1,383 154.6,266.5 143.7,324 95,205.2 103.9,201.6 140.3,290.2 151,233.5 
				206.7,364.4 263.4,294.5 284.9,248.1 307.1,188.3 354.9,169.2 292.8,138.9 368,138.9 415.8,132.2 415.8,100.1 260.8,45.3 
				264,36.3 425.4,93.2 425.4,140.6 368.3,148.5 334.6,148.5 378.8,170.1 314.6,195.7 293.7,252 271.7,299.6 			"/>
		</g>
		<g>
			<linearGradient id="SVGID_11_" gradientUnits="userSpaceOnUse" x1="108.6499" y1="320.1486" x2="102.8989" y2="75.0137">
				<stop  offset="0" style="stop-color:#A7A9AC"/>
				<stop  offset="1" style="stop-color:#6D6E71"/>
			</linearGradient>
			<path fill="url(#SVGID_11_)" d="M160.7,282.1L101.6,95.2l-30.1,49.4l6.8,60l-17.3,69.8l-9.4-2.3l16.5-66.9l-6.9-62.4l40.4-66.4
				l56-43v107.8L160.7,282.1z M108.3,84.4L149.6,215l-1.5-73.6V53l-38.9,30L108.3,84.4z"/>
		</g>
		<g>
			<linearGradient id="SVGID_12_" gradientUnits="userSpaceOnUse" x1="274.6029" y1="316.2553" x2="268.8519" y2="71.1203">
				<stop  offset="0" style="stop-color:#A7A9AC"/>
				<stop  offset="1" style="stop-color:#6D6E71"/>
			</linearGradient>
			<path fill="url(#SVGID_12_)" d="M329,65.9L207.6,29.4l8.5-23.3h34.2l34.2,17.8L329,65.9z M220.3,23.1L292.7,45l-13.8-13.2
				L248,15.8h-25L220.3,23.1z"/>
		</g>
		<g>
			<linearGradient id="SVGID_13_" gradientUnits="userSpaceOnUse" x1="358.9354" y1="314.2768" x2="353.1844" y2="69.1419">
				<stop  offset="0" style="stop-color:#A7A9AC"/>
				<stop  offset="1" style="stop-color:#6D6E71"/>
			</linearGradient>
			<polygon fill="url(#SVGID_13_)" points="351.7,401.5 342.1,400.3 348,352.7 323.7,331.7 309.7,294.9 288.5,327.5 280.4,322.2 
				311.9,273.8 331.9,326 353.8,345 399.3,320.4 391.5,320.4 360.4,319.4 343.9,303.5 350.8,282.9 360,285.9 355.1,300.8 
				364.4,309.8 391.6,310.7 437.5,310.7 357.6,353.8 			"/>
		</g>
		<g>
			<linearGradient id="SVGID_14_" gradientUnits="userSpaceOnUse" x1="270.219" y1="316.3582" x2="264.468" y2="71.2232">
				<stop  offset="0" style="stop-color:#A7A9AC"/>
				<stop  offset="1" style="stop-color:#6D6E71"/>
			</linearGradient>
			<polygon fill="url(#SVGID_14_)" points="239.8,224.3 231.9,218.8 291,133.7 291,75.7 300.6,75.7 300.6,136.8 			"/>
		</g>
		<g>
			<linearGradient id="SVGID_15_" gradientUnits="userSpaceOnUse" x1="455.4842" y1="312.0117" x2="449.7332" y2="66.8768">
				<stop  offset="0" style="stop-color:#A7A9AC"/>
				<stop  offset="1" style="stop-color:#6D6E71"/>
			</linearGradient>
			<polygon fill="url(#SVGID_15_)" points="449.9,291.2 440.5,254.8 449.7,252.4 453.3,265.9 459.5,255 467.9,259.8 			"/>
		</g>
		<g>
			<linearGradient id="SVGID_16_" gradientUnits="userSpaceOnUse" x1="422.0394" y1="312.7964" x2="416.2884" y2="67.6614">
				<stop  offset="0" style="stop-color:#A7A9AC"/>
				<stop  offset="1" style="stop-color:#6D6E71"/>
			</linearGradient>
			<polygon fill="url(#SVGID_16_)" points="426.4,314.4 422.9,300.9 416.6,311.8 408.2,306.9 426.2,275.5 435.7,311.9 			"/>
		</g>
		<g>
			<linearGradient id="SVGID_17_" gradientUnits="userSpaceOnUse" x1="291.0423" y1="315.8696" x2="285.2914" y2="70.7347">
				<stop  offset="0" style="stop-color:#A7A9AC"/>
				<stop  offset="1" style="stop-color:#6D6E71"/>
			</linearGradient>
			<polygon fill="url(#SVGID_17_)" points="289.2,253 300.5,299.6 291.1,301.9 279.8,255.3 			"/>
		</g>
		<g>
			<linearGradient id="SVGID_18_" gradientUnits="userSpaceOnUse" x1="332.8376" y1="330.8545" x2="332.8376" y2="330.8545">
				<stop  offset="0" style="stop-color:#A7A9AC"/>
				<stop  offset="1" style="stop-color:#6D6E71"/>
			</linearGradient>
			<path fill="url(#SVGID_18_)" d="M332.8,330.9"/>
		</g>
		<g>
			<linearGradient id="SVGID_19_" gradientUnits="userSpaceOnUse" x1="390.4192" y1="191.9686" x2="390.4192" y2="191.9686">
				<stop  offset="0" style="stop-color:#A7A9AC"/>
				<stop  offset="1" style="stop-color:#6D6E71"/>
			</linearGradient>
			<path fill="url(#SVGID_19_)" d="M390.4,192"/>
		</g>
		<g>
			<linearGradient id="SVGID_20_" gradientUnits="userSpaceOnUse" x1="378.1265" y1="248.5797" x2="378.1265" y2="248.5797">
				<stop  offset="0" style="stop-color:#A7A9AC"/>
				<stop  offset="1" style="stop-color:#6D6E71"/>
			</linearGradient>
			<path fill="url(#SVGID_20_)" d="M378.1,248.6"/>
		</g>
		<g>
			<linearGradient id="SVGID_21_" gradientUnits="userSpaceOnUse" x1="366.7121" y1="314.0944" x2="360.9612" y2="68.9594">
				<stop  offset="0" style="stop-color:#A7A9AC"/>
				<stop  offset="1" style="stop-color:#6D6E71"/>
			</linearGradient>
			<polygon fill="url(#SVGID_21_)" points="386.4,194.8 368.6,169.1 375.2,152.6 332.4,152.6 332.4,142.9 389.4,142.9 379.5,167.8 
				394.3,189.3 			"/>
		</g>
		<g>
			<linearGradient id="SVGID_22_" gradientUnits="userSpaceOnUse" x1="332.4063" y1="241.4629" x2="332.4063" y2="241.4629">
				<stop  offset="0" style="stop-color:#A7A9AC"/>
				<stop  offset="1" style="stop-color:#6D6E71"/>
			</linearGradient>
			<path fill="url(#SVGID_22_)" d="M332.4,241.5"/>
		</g>
		<g>
			<linearGradient id="SVGID_23_" gradientUnits="userSpaceOnUse" x1="310.8402" y1="191.9686" x2="310.8402" y2="191.9686">
				<stop  offset="0" style="stop-color:#A7A9AC"/>
				<stop  offset="1" style="stop-color:#6D6E71"/>
			</linearGradient>
			<path fill="url(#SVGID_23_)" d="M310.8,192"/>
		</g>
		<linearGradient id="SVGID_24_" gradientUnits="userSpaceOnUse" x1="294.2599" y1="315.7941" x2="288.5089" y2="70.6592">
			<stop  offset="0" style="stop-color:#A7A9AC"/>
			<stop  offset="1" style="stop-color:#6D6E71"/>
		</linearGradient>
		<polyline fill="url(#SVGID_24_)" points="294.2,307.7 291.1,301.8 296.6,295.4 296.6,301.8 		"/>
	</g>
	<g opacity="0.69">
		<path fill="#FFFFFF" d="M126.2,206.9l-3.6,4.3c-1.6-2-4-3.2-6.2-3.2c-3.9,0-6.8,3.1-6.8,7.1c0,4.1,2.9,7.2,6.8,7.2
			c2.1,0,4.4-1.1,6.2-2.9l3.6,3.8c-2.6,2.7-6.5,4.5-10.1,4.5c-7.4,0-12.9-5.4-12.9-12.6c0-7.1,5.6-12.4,13.1-12.4
			C120,202.8,123.8,204.4,126.2,206.9z"/>
		<path fill="#FFFFFF" d="M182.4,223l-1.8,4.5h-6.4l10.6-24.5h6.4l10.3,24.5h-6.7l-1.8-4.5H182.4z M187.8,209.2l-3.6,9.1h7.1
			L187.8,209.2z"/>
		<path fill="#FFFFFF" d="M262.9,208v19.5h-6.2V208h-7.3v-5h20.9v5H262.9z"/>
		<path fill="#FFFFFF" d="M337,227.5V218h-10.2v9.5h-6.2V203h6.2v10.1H337V203h6.2v24.5H337z"/>
		<path fill="#FFFFFF" d="M401.5,223l-1.8,4.5h-6.4l10.6-24.5h6.4l10.3,24.5h-6.7l-1.8-4.5H401.5z M406.8,209.2l-3.6,9.1h7.1
			L406.8,209.2z"/>
		<path fill="#FFFFFF" d="M491.9,206.9l-3.6,4.3c-1.6-2-4-3.2-6.2-3.2c-3.9,0-6.8,3.1-6.8,7.1c0,4.1,2.9,7.2,6.8,7.2
			c2.1,0,4.4-1.1,6.2-2.9l3.6,3.8c-2.6,2.7-6.5,4.5-10.1,4.5c-7.4,0-12.9-5.4-12.9-12.6c0-7.1,5.6-12.4,13.1-12.4
			C485.7,202.8,489.5,204.4,491.9,206.9z"/>
		<path fill="#FFFFFF" d="M552,217.8l-3.3,3.6v6h-6.2V203h6.2v10.6l9.4-10.6h7.2l-9.1,10.2l9.7,14.4h-7.5L552,217.8z"/>
		<path fill="#FFFFFF" d="M635.5,205.4l-2.3,4.9c-2.6-1.5-5.8-2.6-7.8-2.6c-1.6,0-2.7,0.6-2.7,1.8c0,4.2,13,1.8,13,10.7
			c0,4.9-4.3,7.5-9.8,7.5c-4.1,0-8.3-1.5-11.2-3.9l2.4-4.8c2.5,2.2,6.3,3.7,8.9,3.7c2,0,3.2-0.7,3.2-2.1c0-4.3-13-1.8-13-10.4
			c0-4.5,3.9-7.4,9.8-7.4C629.4,202.7,633,203.8,635.5,205.4z"/>
	</g>
</g>
</svg>
